<svg
  xmlns="http://www.w3.org/2000/svg"
  viewBox="0 0 64 64"
  fill="none"
>
  <path
    d="M15.5 9.8C23.3 8.9 38.9 8.6 48.5 10.2C50.7 10.6 52.2 12.3 52.4 14.5C53 23.6 52.4 39.4 51 50.2C50.7 52.5 48.9 54 46.6 54.1C37.4 54.5 24.5 54.1 15.3 52.8C13.2 52.5 11.7 50.9 11.5 48.8C10.7 39.1 10.9 24.4 12.1 13.8C12.4 11.7 13.8 10 15.5 9.8Z"
    fill="#FFF4D7"
  />
  <path
    d="M15.5 9.8C23.3 8.9 38.9 8.6 48.5 10.2C50.7 10.6 52.2 12.3 52.4 14.5C53 23.6 52.4 39.4 51 50.2C50.7 52.5 48.9 54 46.6 54.1C37.4 54.5 24.5 54.1 15.3 52.8C13.2 52.5 11.7 50.9 11.5 48.8C10.7 39.1 10.9 24.4 12.1 13.8C12.4 11.7 13.8 10 15.5 9.8Z"
    stroke="#3E3A32"
    stroke-linecap="round"
    stroke-linejoin="round"
    stroke-width="2.6"
  />
  <path
    d="M18.3 20.5C25.1 20.1 35.9 20.2 44.8 20.7"
    stroke="#8E9496"
    stroke-linecap="round"
    stroke-width="1.45"
  />
  <path
    d="M18.6 28.7C27.8 28.1 36.6 28.2 45.3 28.7"
    stroke="#8E9496"
    stroke-linecap="round"
    stroke-width="1.45"
  />
  <path
    d="M18.2 36.9C25.4 36.5 33.5 36.5 40.8 36.9"
    stroke="#8E9496"
    stroke-linecap="round"
    stroke-width="1.45"
  />
  <path
    d="M21.4 46.2C26.3 44.1 33.3 42.1 38.6 41.6"
    stroke="#3E3A32"
    stroke-linecap="round"
    stroke-width="2.2"
  />
  <path
    d="M37.9 41.1L49.2 29.8"
    stroke="#4A4740"
    stroke-linecap="round"
    stroke-width="5.2"
  />
  <path
    d="M39.2 42.3L50.5 31"
    stroke="#E6C77E"
    stroke-linecap="round"
    stroke-width="2.9"
  />
  <path
    d="M48.2 28.6L52.4 24.5L55.1 27.2L51 31.4"
    fill="#D9A06F"
  />
  <path
    d="M48.2 28.6L52.4 24.5L55.1 27.2L51 31.4"
    stroke="#4A4740"
    stroke-linecap="round"
    stroke-linejoin="round"
    stroke-width="1.7"
  />
  <path
    d="M36.4 43.6L38.2 38.7L41.1 41.6L36.4 43.6Z"
    fill="#4A4740"
    stroke="#4A4740"
    stroke-linejoin="round"
    stroke-width="1.2"
  />
  <path
    d="M18.1 12.9C25.1 12 37.3 12 45.6 13"
    stroke="#B75249"
    stroke-linecap="round"
    stroke-width="1.25"
    opacity="0.35"
  />
</svg>
